PathFileType	4	(X/Y/Z)	38_1_24_p0_0-267.trc
DataRate	CameraRate	NumFrames	NumMarkers	Units	OrigDataRate	OrigDataStartFrame	OrigNumFrames
59.0	59.0	6	27	m	59.0	201	268
Frame#	Time	RHip			RKnee			RAnkle			RBigToe			RSmallToe			RHeel			LHip			LKnee			LAnkle			LBigToe			LSmallToe			LHeel			Neck			Head			Nose			RShoulder			RElbow			RWrist			RThumb			RIndex			RPinky			LShoulder			LElbow			LWrist			LThumb			LIndex			LPinky			
		X1	Y1	Z1	X2	Y2	Z2	X3	Y3	Z3	X4	Y4	Z4	X5	Y5	Z5	X6	Y6	Z6	X7	Y7	Z7	X8	Y8	Z8	X9	Y9	Z9	X10	Y10	Z10	X11	Y11	Z11	X12	Y12	Z12	X13	Y13	Z13	X14	Y14	Z14	X15	Y15	Z15	X16	Y16	Z16	X17	Y17	Z17	X18	Y18	Z18	X19	Y19	Z19	X20	Y20	Z20	X21	Y21	Z21	X22	Y22	Z22	X23	Y23	Z23	X24	Y24	Z24	X25	Y25	Z25	X26	Y26	Z26	X27	Y27	Z27	
201	3.406779661016949	0.3922269971393765	0.7111026184109672	0.5287389864604419	0.4007380671312096	0.9113197445190111	0.953923124739067	0.3627671184506395	1.059936887327876	1.369815208201314	0.31713762090500924	0.8750063144312603	1.4331998271517672	0.38732425053261	0.8697669313694755	1.4280811880673203	0.3476147703603685	1.149230181681605	1.412086785336172	0.17827825914396783	0.741530008986356	0.520026516649788	0.18711281163002003	0.9247893265540148	0.9471374398181375	0.18913293715795515	1.0558957832610758	1.3368343050268034	0.17152923568737943	0.8984583251167001	1.4175383414714076	0.1214980508581849	0.9351033096014306	1.4076246030512585	0.21028028927795928	1.1637292706383913	1.420437882728722	0.29257334059657436	0.5513500491516758	-0.07690414561571554	0.297958544754437	0.43118961215369045	-0.32681959015576095	0.28664843496072795	0.39559992528397087	-0.17024427865714284	0.4696664440745358	0.593382994360152	0.009261014937371328	0.5223560839098349	0.6453598717333054	0.28891004800484155	0.4765991042908208	0.6548882856737683	0.5721199998933759	0.39492199101321634	0.6647368289542266	0.6879619102533088	0.4085729099702208	0.6810358541389903	0.7142016232706258	0.45512743453774757	0.729467336502786	0.7113343949203901	0.12319727113534293	0.641522707927053	-0.010079316329899711	0.06515453400161632	0.73350330190043	0.2639407731003454	0.0703563825515083	0.7122205852639014	0.5303614854837158	0.10609155701983508	0.7309348669933063	0.6398338787778497	0.08209482084717944	0.7466951280377111	0.6943934132666587	0.04647614615983764	0.809548581635205	0.6588699117058443
202	3.4237288135593222	0.3922494451167638	0.7110236240931722	0.5286525113948426	0.39997509278718785	0.912981231780416	0.9585195797659661	0.36281285185477335	1.060066327084497	1.3698391355337318	0.31738019992328903	0.8756349895107176	1.433370758984538	0.38764501656987305	0.8703016128662714	1.4281356063693968	0.34773242573516816	1.1494693128124651	1.4121156547973681	0.17840987609216674	0.7415425191234087	0.5199828328724238	0.18714181075516406	0.9245685990400234	0.9471327268468678	0.18921324663306854	1.055265475580285	1.336561714045135	0.17064614797191968	0.9001902013507248	1.4215592049230203	0.12066834338587076	0.9367319560695179	1.4114593608774595	0.21041996477074243	1.1630422201127926	1.4198469811011503	0.29243699734080436	0.5511023915746134	-0.07983331917116092	0.29793670357599084	0.4312096397390239	-0.326997273430212	0.28650015433179615	0.3954917038017513	-0.17044252187612993	0.4696767667635921	0.5934334313336393	0.009204922241327296	0.5222519998861729	0.6452533688636163	0.2887640583362789	0.47097638397436964	0.6427563496159773	0.5714893246000168	0.38535827962635133	0.6518038927036744	0.686665183695567	0.40846941745408655	0.6809665225442074	0.7140416070701748	0.4535651420037596	0.7287729842999904	0.7107692056626208	0.12316332625329712	0.6414638973817055	-0.010058250673436955	0.06537405772901787	0.7332887209255095	0.2640446696478125	0.07332374911063726	0.6993537577121691	0.5334237131705892	0.10698002114578711	0.7294237985626487	0.639466443163013	0.08963892986439176	0.7340288506893273	0.6933018065633231	0.04680866156295572	0.8094027545688591	0.658657369595735
203	3.440677966101695	0.3922428989230583	0.7108423992022522	0.5289122613235155	0.3998668011416708	0.9127197515651463	0.9584093816781637	0.36791535760646166	1.061840345398596	1.3704321704282383	0.31733793809797944	0.8750752476008571	1.4331268235529426	0.3879232129912289	0.8702510253071213	1.4279636691770083	0.3532247807598845	1.1652538838542275	1.41654163236072	0.17848590925840085	0.7415345435838141	0.5199573077247668	0.18686832709252035	0.9244863553873037	0.9470419595410375	0.18814950982449502	1.0560970487128436	1.3407512752589308	0.17155313256197458	0.898506674204812	1.4175160345784668	0.12065130630053658	0.9362892484813701	1.4111692173137516	0.20942060654755973	1.1599340785588617	1.4159082418813318	0.29215837558710994	0.5495553484387828	-0.08056645966764982	0.29792006547933053	0.43115740011491366	-0.32715225361938577	0.28645846260110014	0.395482535149373	-0.17055795139504404	0.46962292299523034	0.5934623506966525	0.009209845214420965	0.5222004211275786	0.645294620183586	0.28882845542523533	0.4708505698939186	0.6422304856748893	0.5714378380364951	0.3801449301211736	0.6393080282515315	0.6855732752817343	0.4078439409173032	0.6764283753192939	0.7073136623120762	0.45388961457363286	0.7256985874085106	0.706804325136929	0.1231429884990493	0.6415876593649313	-0.010106981044135403	0.06536018351885751	0.733662039119463	0.2639501128541997	0.0739153226088245	0.7139902948069935	0.5336935008577058	0.1072708305792221	0.7304490164826126	0.6367368923673096	0.08712732008880564	0.7469830909553434	0.6902371978831721	0.05203105310878906	0.8086258471139816	0.6554893978842352
204	3.457627118644068	0.39184673374862855	0.7119933604523285	0.532490139916447	0.3999239045983106	0.9122293566304921	0.9626951433051458	0.3617093166192401	1.056791480427984	1.3647287809518363	0.3220477291277615	0.887986521230908	1.4372843471084429	0.3859602329869463	0.9003224627371708	1.4371068651956558	0.3519536250381294	1.1614920399154556	1.4115015177017538	0.17909165517987624	0.7441773160855404	0.5243448404491409	0.18698600783306818	0.925573654694844	0.9474140747365986	0.18875853730152342	1.055006174713149	1.3363782157910915	0.1717142863255839	0.8987048415522582	1.4174772303814223	0.12144810486648074	0.9350255290066873	1.4075252882948293	0.2087271130858255	1.1575754048447895	1.4144310320048634	0.29251230757236274	0.5512766782280705	-0.0768975113667759	0.29195405574256594	0.44306718712864773	-0.3304383059616972	0.28219797647674955	0.3853990238298513	-0.16837594767672742	0.46966793508687543	0.5932173779753829	0.00893581438112013	0.5221004349780165	0.6448894357998243	0.28871450750891375	0.46922477856894773	0.6573965875879715	0.5720598159545964	0.38013603860037615	0.639119637739805	0.6856093041420456	0.4084245303485884	0.6787340750814036	0.7108447134835719	0.4543330211366525	0.7293286820894985	0.7143660155545487	0.12312141291895683	0.6413831068315531	-0.010069087390110577	0.06548808509044039	0.732913929028391	0.2639900684440495	0.07462863994034609	0.7134072175930661	0.530335786944781	0.10791928276353296	0.7352049416619206	0.6408874960425491	0.09203115431158665	0.7463331964774783	0.6860380575760412	0.05609969396226167	0.7926046987333786	0.6513358156980176
205	3.4745762711864407	0.3922189712497809	0.7110803542636672	0.5289541116159512	0.3998754586726025	0.9125839786514502	0.9628913624966932	0.36170703743304183	1.0569743768899267	1.3648021638188983	0.32222076536356303	0.888224891380207	1.437375433718667	0.39102079206915175	0.9014783926228961	1.4376819445616136	0.35196277196821446	1.1616935937654569	1.411554510585987	0.1785066637182263	0.7419449307571153	0.520105946419085	0.18688764051445378	0.9262911720314997	0.9475982192272409	0.18778955468780825	1.0517106709289394	1.3312094747960443	0.1717198046530051	0.8986622183794627	1.4174899319172134	0.12149577219584774	0.9348820924456306	1.407454198550335	0.20796873821100084	1.1558202998758798	1.4111206617506429	0.29242207983537644	0.5513021193556621	-0.07695242824436829	0.286950438824822	0.43198337197442566	-0.3270158012265507	0.2821587663517445	0.385314905347188	-0.16841063810909437	0.469627668519132	0.5932895909058366	0.008941258888997562	0.5220466095317676	0.6447761349128313	0.2886666021230368	0.4691471779358981	0.6573593202548158	0.5721182970168895	0.37500146501636517	0.6266467658554404	0.6847239076698427	0.40385193275833675	0.6665737739484034	0.7097788501856069	0.4536470212596276	0.7283277045165154	0.7141978746493506	0.11882044359127183	0.6297066856908338	-0.008254456977132648	0.06512142978788309	0.7307504836736444	0.26027556067405583	0.07464441797131642	0.7135162209837997	0.530287426835791	0.10744744414140082	0.7319377095604575	0.6370194634150546	0.09565687438573336	0.7329743616537021	0.684873796672716	0.059708281662634706	0.7777096507303757	0.6503622736325421
206	3.4915254237288136	0.39213309946085345	0.7108074445391889	0.5289419067353354	0.3998092615665883	0.9121171787801479	0.9626731624444956	0.3617283547637079	1.0570064203156053	1.3647618693672128	0.32231233722246305	0.8880779494772084	1.4372096243119838	0.39304788025853876	0.8836531649046873	1.4320999023166383	0.35198712833777346	1.1617188844766042	1.4114739266929854	0.1790691883210897	0.7441403990479695	0.5242729300615512	0.1869436107756514	0.9260948054561182	0.9475610692066615	0.18880289367153255	1.0549573181553011	1.3362720305060911	0.17179408431584534	0.8986852535468812	1.4174512719345367	0.121371487497782	0.9349704261574654	1.4074336294068894	0.20889740010454275	1.1583742158981452	1.4148212336600843	0.2886049246255464	0.548919477057354	-0.08040060366992316	0.2868706182088344	0.4317270285173931	-0.32710668093823936	0.282108362062749	0.3853781767935437	-0.1683712826473108	0.46957727265750804	0.5929731610091287	0.009018505023545995	0.5220139134975783	0.6446530743761144	0.28877429132033683	0.4690821553543664	0.6572048960989989	0.5721368942768276	0.37999362933903313	0.6384551944027342	0.6856779815231524	0.4038876551462287	0.6665435307979617	0.7097024275061532	0.4527972865942844	0.7258214577317581	0.7103420879120667	0.11873202497025004	0.6295170754148808	-0.0082339582666884	0.06503340478543335	0.7306705554272499	0.2602436633209059	0.0780742038256626	0.6997891508666465	0.5300580777478429	0.11089626075887986	0.7171431671988339	0.6361157621917155	0.0959366690519116	0.7327334406821351	0.6849823919078059	0.06317856957672972	0.763009070592017	0.6496511065421315
